<svg xmlns="http://www.w3.org/2000/svg" viewBox="0 0 512 512"><defs>
<linearGradient id="bg4" x1="0" y1="0" x2="0" y2="1"><stop offset="0" stop-color="#101a33"/><stop offset="1" stop-color="#070b16"/></linearGradient>
<linearGradient id="ice4" x1="0" y1="0" x2="1" y2="1"><stop offset="0" stop-color="#ffffff"/><stop offset="1" stop-color="#9ed4ee"/></linearGradient>
<linearGradient id="sea4" x1="0" y1="0" x2="1" y2="1"><stop offset="0" stop-color="#38bdf8"/><stop offset="1" stop-color="#1d4ed8"/></linearGradient>
<clipPath id="c4"><circle cx="256" cy="256" r="184"/></clipPath>
<clipPath id="ul4"><path d="M0 0 L512 0 L0 512 Z"/></clipPath>
<clipPath id="lr4"><path d="M512 0 L512 512 L0 512 Z"/></clipPath>
</defs><rect width="512" height="512" rx="112" fill="url(#bg4)"/>
<circle cx="45.7" cy="401.8" r="2.4" fill="#ffffff" opacity="0.65"/>
<circle cx="46.5" cy="375.8" r="1.8" fill="#ffffff" opacity="0.77"/>
<circle cx="53.4" cy="413.9" r="3.0" fill="#ffffff" opacity="0.68"/>
<circle cx="456.5" cy="98.0" r="2.4" fill="#ffffff" opacity="0.40"/>
<circle cx="457.1" cy="228.4" r="2.4" fill="#ffffff" opacity="0.58"/>
<g clip-path="url(#c4)">
  <g clip-path="url(#ul4)">
    <rect width="512" height="512" fill="url(#ice4)"/>
    <path d="M110 170 l 40 20 l 20 -30 l 34 18 M150 240 l 30 -10 l 14 22 M200 120 l 20 26 l 30 -8" fill="none" stroke="#7cb9d8" stroke-width="5" stroke-linecap="round" stroke-linejoin="round"/>
  </g>
  <g clip-path="url(#lr4)">
    <rect width="512" height="512" fill="url(#sea4)"/>
    <path d="M250 450 C 260 360, 330 330, 360 280 C 390 230, 440 230, 470 250 L 470 470 Z" fill="#22c55e"/>
    <path d="M300 460 C 320 400, 380 380, 420 330 L 470 330 L 470 470 Z" fill="#15803d"/>
    <path d="M300 250 q 12 -8 24 0 t 24 0 M270 300 q 12 -8 24 0 t 24 0" fill="none" stroke="#bae6fd" stroke-width="5" stroke-linecap="round"/>
    <g fill="#14532d"><circle cx="400" cy="300" r="14"/><circle cx="424" cy="290" r="11"/><circle cx="370" cy="352" r="13"/></g>
  </g>
</g>
<g transform="rotate(-45 256 256)">
  <rect x="40" y="226" width="432" height="60" rx="10" fill="#0b0f18"/>
  <rect x="40" y="234" width="432" height="44" fill="#3a4352"/>
  <rect x="40" y="241" width="432" height="30" fill="#2a313d"/>
  <path d="M62 244 l 13 12 l -13 12" fill="none" stroke="#fbbf24" stroke-width="6" stroke-linecap="round" stroke-linejoin="round"/><path d="M96 244 l 13 12 l -13 12" fill="none" stroke="#fbbf24" stroke-width="6" stroke-linecap="round" stroke-linejoin="round"/><path d="M130 244 l 13 12 l -13 12" fill="none" stroke="#fbbf24" stroke-width="6" stroke-linecap="round" stroke-linejoin="round"/><path d="M164 244 l 13 12 l -13 12" fill="none" stroke="#fbbf24" stroke-width="6" stroke-linecap="round" stroke-linejoin="round"/><path d="M198 244 l 13 12 l -13 12" fill="none" stroke="#fbbf24" stroke-width="6" stroke-linecap="round" stroke-linejoin="round"/><path d="M232 244 l 13 12 l -13 12" fill="none" stroke="#fbbf24" stroke-width="6" stroke-linecap="round" stroke-linejoin="round"/><path d="M266 244 l 13 12 l -13 12" fill="none" stroke="#fbbf24" stroke-width="6" stroke-linecap="round" stroke-linejoin="round"/><path d="M300 244 l 13 12 l -13 12" fill="none" stroke="#fbbf24" stroke-width="6" stroke-linecap="round" stroke-linejoin="round"/><path d="M334 244 l 13 12 l -13 12" fill="none" stroke="#fbbf24" stroke-width="6" stroke-linecap="round" stroke-linejoin="round"/><path d="M368 244 l 13 12 l -13 12" fill="none" stroke="#fbbf24" stroke-width="6" stroke-linecap="round" stroke-linejoin="round"/><path d="M402 244 l 13 12 l -13 12" fill="none" stroke="#fbbf24" stroke-width="6" stroke-linecap="round" stroke-linejoin="round"/><path d="M436 244 l 13 12 l -13 12" fill="none" stroke="#fbbf24" stroke-width="6" stroke-linecap="round" stroke-linejoin="round"/>
</g>
<circle cx="256" cy="256" r="184" fill="none" stroke="#e2e8f0" stroke-width="5" opacity="0.5"/></svg>